<svg id="Layer_1" data-name="Layer 1" xmlns="http://www.w3.org/2000/svg" viewBox="0 0 35.24 35.79"><defs><style>.cls-1{fill:#0a72b8;}</style></defs><title>CHC-final</title><path class="cls-1" d="M17.62.27q-.87.16-1.71.39c.21.29.42.59.62.91s.38.62.56,1l.53-.11C26.16.91,33.1,6.63,33.1,15.17A16.6,16.6,0,0,1,32.38,20c.29.27.56.55.81.82a9.93,9.93,0,0,1,.75.9,19.41,19.41,0,0,0,1.3-6.89C35.24,5.07,27.34-1.44,17.62.27Z"/><path class="cls-1" d="M20.28,32.68a17.05,17.05,0,0,1-2.66.7C9.09,34.88,2.14,29.16,2.14,20.63a17,17,0,0,1,1.43-6.74L3.32,13c0-.21-.11-.4-.16-.6-.13-.5-.24-1-.34-1.43A20.13,20.13,0,0,0,0,21c0,9.72,7.91,16.23,17.62,14.52A19.88,19.88,0,0,0,23,33.71a14.26,14.26,0,0,1-1.39-.47C21.21,33.08,20.76,32.89,20.28,32.68Z"/><path class="cls-1" d="M32.18,23.2a10.86,10.86,0,0,0-.7-.85c-1.68-1.82-4.08-3.3-4.7-3.21h0c-1.11.19-3.19,2.54-4.39,6C12.87,21.6,10.88,11.89,10.88,11.89S17.76,9.3,16.74,7a34.29,34.29,0,0,0-1.93-3.83c-.19-.3-.38-.6-.58-.88a9.68,9.68,0,0,0-.67-.83A2.82,2.82,0,0,0,11.15.25a2,2,0,0,0-.83.38C5.78,4.22,4.53,6,4.62,8.31A9,9,0,0,0,4.8,9.69c.08.41.19.84.31,1.31.17.67.38,1.4.59,2.22,2.24,6.11,3.69,10.28,10.62,14.9a54.56,54.56,0,0,0,6.86,3.25,10.29,10.29,0,0,0,1.32.37,5.84,5.84,0,0,0,1.57.13l.45-.05c2-.36,3.49-2.11,6.43-5.19a2.6,2.6,0,0,0-.16-2.45A6.55,6.55,0,0,0,32.18,23.2Z"/></svg>