<svg id="Layer_1" data-name="Layer 1" xmlns="http://www.w3.org/2000/svg" viewBox="0 0 41.67 30.48"><defs><style>.cls-1{fill:#0a72b8;fill-rule:evenodd;}</style></defs><title>CHC-final</title><path class="cls-1" d="M27.7,4.05A11.61,11.61,0,0,0,22.61.73,16.19,16.19,0,0,0,14.75.28,18.71,18.71,0,0,0,9,2.24,20.44,20.44,0,0,0,4.68,5.35C2.12,7.89,0,11.48,0,14.93a8.8,8.8,0,0,0,1.91,6.31,13.92,13.92,0,0,0,2.81,2.48C6,24.56,6,24,5.51,25.46c-.21.63-1,3.24-1,3.55a25.74,25.74,0,0,0,2.18-1.45L8.9,26.05c1-.64.18-.48,2.55-.43a17.78,17.78,0,0,0,4.63-.51,18.38,18.38,0,0,1-.4-3.22,11.72,11.72,0,0,1,.54-3.27c1.43-4.86,5.37-8.26,10-9.92A23.72,23.72,0,0,1,29.62,8,9.32,9.32,0,0,0,27.7,4.05ZM10.41,10.92C7.82,11.84,6.6,9,9.22,7.68,12.1,6.24,12.58,10.15,10.41,10.92ZM20.47,9.21C18,9.82,17,7.06,19.66,5.81c1.17-.55,2.25-.12,2.39.9A2.14,2.14,0,0,1,20.47,9.21Z"/><path class="cls-1" d="M38.62,10.9a11.53,11.53,0,0,0-8-2.29,16.42,16.42,0,0,0-9.43,4c-5.33,4.7-6.36,12.09-1.14,15.92,2.83,2.08,7,2.55,11.27,1.1,2.82-1,1.7-1.18,4.4-.15a9.75,9.75,0,0,0,1.93.68c-.06-.85-1.08-2.73-1-3.55C42.23,21.73,43.56,14.7,38.62,10.9ZM25.79,18.1c-1,.53-1.77.19-2.09-.53s.35-1.64,1-2C26.47,14.75,28.1,16.9,25.79,18.1Zm8.08-1.38c-2.06,1-3-1.42-1.08-2.53a1.56,1.56,0,0,1,2.08.47C35.34,15.52,34.55,16.4,33.87,16.72Z"/></svg>