<svg id="Layer_1" data-name="Layer 1" xmlns="http://www.w3.org/2000/svg" xmlns:xlink="http://www.w3.org/1999/xlink" viewBox="0 0 41.26 41.26"><defs><style>.cls-1{fill:#812311;}.cls-2{fill:url(#radial-gradient);}.cls-3{fill:url(#radial-gradient-2);}.cls-4{clip-path:url(#clip-path);}.cls-5{fill:url(#radial-gradient-3);}.cls-6{fill:url(#linear-gradient);}</style><radialGradient id="radial-gradient" cx="-11269.39" cy="-8349.45" r="17.34" gradientTransform="matrix(-1.19, 0, 0, 1.19, -13392.19, 9957.32)" gradientUnits="userSpaceOnUse"><stop offset="0" stop-color="#f4e721"/><stop offset="0.45" stop-color="#f4e520"/><stop offset="0.61" stop-color="#f4de1f"/><stop offset="0.72" stop-color="#f3d31b"/><stop offset="0.81" stop-color="#f2c217"/><stop offset="0.89" stop-color="#f1ac11"/><stop offset="0.96" stop-color="#f0910a"/><stop offset="1" stop-color="#ef7f05"/></radialGradient><radialGradient id="radial-gradient-2" cx="-18.62" cy="-17.9" r="23.5" gradientTransform="translate(40.23 17.79) scale(1.02)" gradientUnits="userSpaceOnUse"><stop offset="0" stop-color="#fff"/><stop offset="1" stop-color="#f5e834"/></radialGradient><clipPath id="clip-path"><path class="cls-1" d="M32.94,27.76a.41.41,0,0,1,0,.32,2.07,2.07,0,0,1-.65.64A11.58,11.58,0,0,1,29.46,30a29.7,29.7,0,0,1-8.83,1.25,33.27,33.27,0,0,1-4.74-.33A23.6,23.6,0,0,1,11.8,30,10.86,10.86,0,0,1,9,28.72a2.08,2.08,0,0,1-.65-.64.41.41,0,0,1,0-.32.33.33,0,0,0,.2.18,2.24,2.24,0,0,0,.74.14c.68,0,1.65,0,2.82,0l4-.15c1.46,0,3-.06,4.56-.06,3.11,0,6.21.11,8.55.21a25.33,25.33,0,0,0,2.82,0,2.31,2.31,0,0,0,.75-.14A.3.3,0,0,0,32.94,27.76Z"/></clipPath><radialGradient id="radial-gradient-3" cx="-19.35" cy="11.35" r="10.05" gradientTransform="translate(40.23 17.79) scale(1.02)" gradientUnits="userSpaceOnUse"><stop offset="0" stop-color="#e4151c"/><stop offset="0.19" stop-color="#db151b"/><stop offset="0.51" stop-color="#c1161a"/><stop offset="0.91" stop-color="#981818"/><stop offset="1" stop-color="#8e1817"/></radialGradient><linearGradient id="linear-gradient" x1="20.63" y1="26.56" x2="20.63" y2="20.98" gradientUnits="userSpaceOnUse"><stop offset="0" stop-color="#fff"/><stop offset="0.09" stop-color="#f6f6f6"/><stop offset="0.23" stop-color="#dcdcdc"/><stop offset="0.41" stop-color="#b3b2b2"/><stop offset="0.62" stop-color="#797979"/><stop offset="0.86" stop-color="#313030"/><stop offset="1" stop-color="#030202"/></linearGradient></defs><title>CHC-final</title><path class="cls-2" d="M0,20.63A20.63,20.63,0,1,0,20.63,0,20.63,20.63,0,0,0,0,20.63Z"/><path class="cls-3" d="M5,12.49c0,6.56,7,11.88,15.62,11.88s15.63-5.32,15.63-11.88S29.26.6,20.63.6,5,5.92,5,12.49Z"/><path class="cls-1" d="M10.1,13.38a2.85,2.85,0,0,1,2.76-2.93,2.85,2.85,0,0,1,2.77,2.93,2.85,2.85,0,0,1-2.77,2.93A2.85,2.85,0,0,1,10.1,13.38Z"/><path class="cls-1" d="M25.23,13.38a2.76,2.76,0,1,1,5.52,0,2.76,2.76,0,1,1-5.52,0Z"/><path class="cls-1" d="M32.94,27.76a.41.41,0,0,1,0,.32,2.07,2.07,0,0,1-.65.64A11.58,11.58,0,0,1,29.46,30a29.7,29.7,0,0,1-8.83,1.25,33.27,33.27,0,0,1-4.74-.33A23.6,23.6,0,0,1,11.8,30,10.86,10.86,0,0,1,9,28.72a2.08,2.08,0,0,1-.65-.64.41.41,0,0,1,0-.32.33.33,0,0,0,.2.18,2.24,2.24,0,0,0,.74.14c.68,0,1.65,0,2.82,0l4-.15c1.46,0,3-.06,4.56-.06,3.11,0,6.21.11,8.55.21a25.33,25.33,0,0,0,2.82,0,2.31,2.31,0,0,0,.75-.14A.3.3,0,0,0,32.94,27.76Z"/><g class="cls-4"><path class="cls-5" d="M20.63,37.74a12.58,12.58,0,0,0,9.76-4.81,7,7,0,0,0-6.13-3.71,6.76,6.76,0,0,0-3.63,1.05A6.76,6.76,0,0,0,17,29.22a7,7,0,0,0-6.13,3.71A12.61,12.61,0,0,0,20.63,37.74Z"/><path class="cls-6" d="M7.43,24.76a15.56,15.56,0,0,0,.1,1.81,40.53,40.53,0,0,0,13.1,2.08,40.64,40.64,0,0,0,13.11-2.08c.06-.6.1-1.2.1-1.81Z"/></g></svg>