<svg id="Layer_1" data-name="Layer 1" xmlns="http://www.w3.org/2000/svg" xmlns:xlink="http://www.w3.org/1999/xlink" viewBox="0 0 41.12 41.12"><defs><style>.cls-1{fill:url(#radial-gradient);}.cls-2{fill:url(#radial-gradient-2);}.cls-3{fill:#841813;}</style><radialGradient id="radial-gradient" cx="-11450.52" cy="-8347.63" r="17.28" gradientTransform="matrix(-1.19, 0, 0, 1.19, -13608.99, 9955.07)" gradientUnits="userSpaceOnUse"><stop offset="0" stop-color="#e95619"/><stop offset="0.49" stop-color="#e85419"/><stop offset="0.67" stop-color="#e44d1b"/><stop offset="0.8" stop-color="#dd421d"/><stop offset="0.9" stop-color="#d3311f"/><stop offset="0.99" stop-color="#c51b23"/><stop offset="1" stop-color="#c31724"/></radialGradient><radialGradient id="radial-gradient-2" cx="-19.51" cy="-15.69" r="23.42" gradientTransform="translate(41.06 15.53) scale(1.02)" gradientUnits="userSpaceOnUse"><stop offset="0" stop-color="#f2970a"/><stop offset="1" stop-color="#e95619"/></radialGradient></defs><title>CHC-final</title><path class="cls-1" d="M0,20.56A20.56,20.56,0,1,0,20.56,0,20.55,20.55,0,0,0,0,20.56Z"/><path class="cls-2" d="M5,12.45C5,19,12,24.29,20.56,24.29S36.14,19,36.14,12.45,29.16.6,20.56.6,5,5.9,5,12.45Z"/><path class="cls-3" d="M24.78,33.58a.86.86,0,0,1-.63-.27l-1.69-1.68a2.68,2.68,0,0,0-3.8,0L17,33.31a.9.9,0,0,1-1.27,0,.89.89,0,0,1,0-1.26l1.69-1.69a4.48,4.48,0,0,1,6.32,0l1.69,1.69a.89.89,0,0,1,0,1.26A.86.86,0,0,1,24.78,33.58Z"/><path class="cls-3" d="M14.5,13.57a2,2,0,1,1-2-2A2,2,0,0,1,14.5,13.57Z"/><path class="cls-3" d="M16.47,13.09H8.57a.9.9,0,0,1,0-1.79h7.9a.9.9,0,1,1,0,1.79Z"/><path class="cls-3" d="M30.58,13.57a2,2,0,1,1-2-2A2,2,0,0,1,30.58,13.57Z"/><path class="cls-3" d="M32.55,13.09h-7.9a.9.9,0,0,1,0-1.79h7.9a.9.9,0,0,1,0,1.79Z"/><path class="cls-3" d="M19.1,26.59V25.45a.46.46,0,0,1,.46-.45.45.45,0,0,1,.45.45v1.14a.45.45,0,0,1-.45.45A.46.46,0,0,1,19.1,26.59Z"/><path class="cls-3" d="M20.94,26.59V25.45a.45.45,0,0,1,.9,0v1.14a.45.45,0,0,1-.9,0Z"/></svg>