<svg id="Layer_1" data-name="Layer 1" xmlns="http://www.w3.org/2000/svg" xmlns:xlink="http://www.w3.org/1999/xlink" viewBox="0 0 41.18 41.18"><defs><style>.cls-1{fill:url(#radial-gradient);}.cls-2{fill:url(#radial-gradient-2);}.cls-3{fill:url(#radial-gradient-3);}.cls-4{fill:#ebe443;}.cls-5{fill:#066a36;}.cls-6{clip-path:url(#clip-path);}.cls-7{fill:url(#linear-gradient);}.cls-8{fill:url(#linear-gradient-2);}</style><radialGradient id="radial-gradient" cx="20.61" cy="23.5" r="17.42" gradientUnits="userSpaceOnUse"><stop offset="0" stop-color="#045428"/><stop offset="0.24" stop-color="#045d2b"/><stop offset="0.65" stop-color="#037732"/><stop offset="1" stop-color="#02923a"/></radialGradient><radialGradient id="radial-gradient-2" cx="-11083.08" cy="-8349.53" r="17.3" gradientTransform="matrix(-1.19, 0, 0, 1.19, -13170.49, 9957.37)" gradientUnits="userSpaceOnUse"><stop offset="0" stop-color="#90bf27"/><stop offset="0.45" stop-color="#8ebf27"/><stop offset="0.61" stop-color="#87bd29"/><stop offset="0.73" stop-color="#7cba2b"/><stop offset="0.82" stop-color="#6bb62f"/><stop offset="0.9" stop-color="#55b133"/><stop offset="0.97" stop-color="#3aab39"/><stop offset="1" stop-color="#2ba83c"/></radialGradient><radialGradient id="radial-gradient-3" cx="-16.32" cy="-17.9" r="23.45" gradientTransform="translate(37.83 17.8) scale(1.02)" gradientUnits="userSpaceOnUse"><stop offset="0" stop-color="#fff"/><stop offset="1" stop-color="#90bf27"/></radialGradient><clipPath id="clip-path"><path class="cls-1" d="M33.65,21.24c0,8.12-5.9,14.71-13.18,14.71S7.3,29.36,7.3,21.24Z"/></clipPath><linearGradient id="linear-gradient" x1="0.33" y1="22.05" x2="40.61" y2="22.05" gradientUnits="userSpaceOnUse"><stop offset="0" stop-color="#dbdddc"/><stop offset="0.52" stop-color="#fff"/><stop offset="0.69" stop-color="#f6f6f6"/><stop offset="0.99" stop-color="#dcdedd"/><stop offset="1" stop-color="#dbdddc"/></linearGradient><linearGradient id="linear-gradient-2" x1="11.98" y1="35.44" x2="28.96" y2="35.44" xlink:href="#linear-gradient"/></defs><title>CHC-final</title><path class="cls-2" d="M0,20.59A20.59,20.59,0,1,0,20.59,0,20.59,20.59,0,0,0,0,20.59Z"/><path class="cls-3" d="M5,12.46C5,19,12,24.32,20.59,24.32S36.18,19,36.18,12.46,29.2.6,20.59.6,5,5.91,5,12.46Z"/><polygon class="cls-4" points="31.32 11.86 32.83 12.68 31.32 13.51 30.49 15.02 29.66 13.51 28.15 12.68 29.66 11.86 30.49 10.34 31.32 11.86"/><path class="cls-5" d="M13.17,13.35c0-2.57.87-4.66,1.95-4.66s2,2.09,2,4.66S16.2,18,15.12,18,13.17,15.92,13.17,13.35Z"/><path class="cls-5" d="M23.69,13.35c0-2.57.88-4.66,1.95-4.66s2,2.09,2,4.66-.88,4.66-2,4.66S23.69,15.92,23.69,13.35Z"/><path class="cls-1" d="M33.65,21.24c0,8.12-5.9,14.71-13.18,14.71S7.3,29.36,7.3,21.24Z"/><g class="cls-6"><path class="cls-7" d="M.33,19.08a25.25,25.25,0,0,0,.15,2.76,61.71,61.71,0,0,0,20,3.18,61.67,61.67,0,0,0,20-3.18,25.25,25.25,0,0,0,.15-2.76Z"/><path class="cls-8" d="M20.47,33.2a66.55,66.55,0,0,1-9.83-.73H.33a25.25,25.25,0,0,0,.15,2.76,61.71,61.71,0,0,0,20,3.18,61.67,61.67,0,0,0,20-3.18,25.25,25.25,0,0,0,.15-2.76H30.3A66.44,66.44,0,0,1,20.47,33.2Z"/></g></svg>