<svg id="Layer_1" data-name="Layer 1" xmlns="http://www.w3.org/2000/svg" viewBox="0 0 44.81 38.99"><defs><style>.cls-1{fill:#0a72b8;}</style></defs><title>CHC-final</title><path class="cls-1" d="M33.18,17.63c-1.74,0-.89-1.12-.89-1.12S34,13.4,32,11.72c-2.53-2.09-8.68,1.85-8.68,1.85-2.35,1.15-1.73,0-1.4-1.89,0-2.13-.73-5.61-7-2.37S3.26,21,3.26,21C-.47,26.63,0,30.4,0,30.4c.93,8.34,10,9.08,17,8.39,7.39-.72,17.37-5.61,20.4-12.57S34.93,17.67,33.18,17.63ZM17.56,36.3c-7.34,1.63-13.27-1-13.27-5.9s5.93-9.88,13.27-11.51,13.29.35,13.29,5.24S24.9,34.67,17.56,36.3Z"/><path class="cls-1" d="M16.1,22.38c-7.38,2.16-6.53,8.93-6.53,8.93a3.11,3.11,0,0,0,2,2.95c4.32,1.58,8.76-.62,11-3.92S23.49,20.22,16.1,22.38Zm-1.87,10c-1.37.4-2.48-.2-2.48-1.35a3.3,3.3,0,0,1,2.36-2.91c1.58-.43,2.61.3,2.61,1.45A3.34,3.34,0,0,1,14.23,32.41Zm4.35-4.47c-.46.43-1,.48-1.28.1a1.18,1.18,0,0,1,.31-1.46c.55-.5,1.11-.48,1.36-.12A1.28,1.28,0,0,1,18.58,27.94Z"/><path class="cls-1" d="M36.78,14A1.51,1.51,0,0,0,38,12.78a.51.51,0,0,0,0-.13c.9-8.26-6.64-5.54-6.64-5.54a1.51,1.51,0,0,0-1.21,1.43,1,1,0,0,0,1.21,1C36.76,7.39,35.56,13,35.56,13A1,1,0,0,0,36.78,14Z"/><path class="cls-1" d="M35.9,0a15.71,15.71,0,0,0-6,1.12c-.06,0-.11.08-.17.1l0,0a2.2,2.2,0,0,0-1.28,1.93,1.44,1.44,0,0,0,1.76,1.45A9.23,9.23,0,0,0,31.72,4c.64-.37,6-1.26,8.72,2.78A7.64,7.64,0,0,1,41,12.52a5.81,5.81,0,0,0-.35,1.76c0,1,.79,1.44,1.76,1.27.81-.14,1.49-.37,1.69-1.78h0C47,3.66,40.56.28,35.9,0Z"/></svg>