<svg id="Layer_1" data-name="Layer 1" xmlns="http://www.w3.org/2000/svg" viewBox="0 0 36.64 37.13"><defs><style>.cls-1{fill:#0a72b8;}</style></defs><title>CHC-final</title><polygon class="cls-1" points="21.98 16.71 21.47 19.61 21.2 21.15 19.68 21.48 16.76 22.12 15.76 27.4 13.87 37.09 25.24 25.16 36.63 13.25 27.1 15.52 21.98 16.71"/><polygon class="cls-1" points="24.96 0.01 24.96 0.02 23.19 9.82 22.49 13.81 29.29 12.36 36.18 10.93 30.46 5.39 24.96 0.01"/><polygon class="cls-1" points="4.38 24.84 0 26.03 5.72 31.57 11.42 37.13 13.15 29.54 14.77 22.55 10.06 23.58 4.38 24.84"/><polygon class="cls-1" points="0.32 23.84 9.97 21.69 17.14 20.13 19.6 19.6 20.02 17.16 21.32 9.81 23.08 0 11.71 11.93 0.32 23.84"/></svg>