<svg xmlns="http://www.w3.org/2000/svg" viewBox="0 0 226.74 55.98"><defs><style>.cls-1{fill:#0075c9;}.cls-2{fill:#fff;}</style></defs><title>资源 1</title><g id="图层_2" data-name="图层 2"><g id="Layer_1" data-name="Layer 1"><rect class="cls-1" x="1.03" width="225.71" height="55.98"/><rect class="cls-1" width="225.71" height="55.98"/><polygon class="cls-2" points="40.68 13.4 57.31 13.4 57.31 19.75 48.16 19.76 48.16 24.48 56.08 24.48 56.08 30.69 48.16 30.7 48.16 35.94 57.31 35.94 57.31 42.27 40.68 42.27 40.68 13.4"/><path class="cls-2" d="M91.46,13.4S81.83,29.68,80.9,31.15c-1.1,1.72-3.49,4.46-7.1,4.41-5.88-.09-8.09-4.13-8.09-7.76a7.77,7.77,0,0,1,7.63-7.75c4.88-.1,8.52,4.55,8.52,4.55l3.82-6.12a15.59,15.59,0,0,0-12.27-5.66A15.16,15.16,0,0,0,58,27.67,14.93,14.93,0,0,0,71.64,42.84a16.39,16.39,0,0,0,13.7-4.9s-.06,0,.25,0c1.78,0,6.49,0,6.49,0v4.33h7.2V13.4Zm.77,18.5H88.37l3.86-6.54Z"/><polygon class="cls-2" points="106.65 42.29 106.65 20.29 100.84 20.29 100.84 13.38 119.93 13.38 119.93 20.29 114.13 20.29 114.13 42.29 106.65 42.29"/><polygon class="cls-2" points="136.63 31.23 128.94 31.23 128.94 42.29 121.47 42.29 121.47 13.39 128.94 13.39 128.94 24.37 136.63 24.37 136.63 13.39 144.11 13.39 144.11 42.29 136.63 42.29 136.63 31.23"/><polygon class="cls-2" points="146.39 42.29 146.39 13.4 153.83 13.4 153.83 35.91 162.55 35.91 162.55 42.29 146.39 42.29"/><path class="cls-2" d="M162.73,17a15.38,15.38,0,0,1,21.27,0,14.6,14.6,0,0,1,4.57,10.59,15,15,0,0,1-15.14,15.24,14.71,14.71,0,0,1-11-4.58,15,15,0,0,1-4.18-10.78A14.46,14.46,0,0,1,162.73,17m10.7,18.67a7.72,7.72,0,0,0,7.68-8.08,7.72,7.72,0,0,0-15.43,0,8,8,0,0,0,7.75,8.08"/><polygon class="cls-2" points="187.87 42.29 187.87 13.4 194.63 13.4 205.86 29.44 205.86 13.4 213.35 13.4 213.35 42.29 206.77 42.29 195.36 26.19 195.36 42.29 187.87 42.29"/><path class="cls-2" d="M14.56,42.29V13.4H25c4.85,0,8.24.6,11.42,3.45,2.92,2.6,4.47,6.38,4.47,11.13a14.12,14.12,0,0,1-4.43,10.74c-3.26,3-6.14,3.57-10.44,3.57ZM33.47,27.75c0-5.21-3-8.14-8.46-8.14H22V36h3c5.72,0,8.43-2.52,8.43-8.2"/></g></g></svg>